<?xml version="1.0" encoding="utf-8"?>
<svg version="1.1" xmlns:xlink="http://www.w3.org/1999/xlink" width="12px" height="12px" viewBox="285 165.5  12 12" xmlns="http://www.w3.org/2000/svg">
  <path d="M 291 165.5  C 294.36 165.5  297 168.14  297 171.5  C 297 174.86  294.36 177.5  291 177.5  C 287.64 177.5  285 174.86  285 171.5  C 285 168.14  287.64 165.5  291 165.5  Z " fill-rule="nonzero" fill="#f0f0f0" stroke="none" />
  <path d="M 291 166  C 294.08 166  296.5 168.42  296.5 171.5  C 296.5 174.58  294.08 177  291 177  C 287.92 177  285.5 174.58  285.5 171.5  C 285.5 168.42  287.92 166  291 166  Z " stroke-width="1" stroke="#797979" fill="none" />
  <path d="M 291 174.5  C 289.32 174.5  288 173.18  288 171.5  C 288 169.82  289.32 168.5  291 168.5  C 292.68 168.5  294 169.82  294 171.5  C 294 173.18  292.68 174.5  291 174.5  " fill-rule="nonzero" fill="#797979" stroke="none" />
</svg>