<?xml version="1.0" encoding="utf-8"?>
<svg version="1.1" xmlns:xlink="http://www.w3.org/1999/xlink" width="12px" height="12px" viewBox="345 165.5  12 12" xmlns="http://www.w3.org/2000/svg">
  <path d="M 351 165.5  C 354.36 165.5  357 168.14  357 171.5  C 357 174.86  354.36 177.5  351 177.5  C 347.64 177.5  345 174.86  345 171.5  C 345 168.14  347.64 165.5  351 165.5  Z " fill-rule="nonzero" fill="#f0f0f0" stroke="none" />
  <path d="M 351 166  C 354.08 166  356.5 168.42  356.5 171.5  C 356.5 174.58  354.08 177  351 177  C 347.92 177  345.5 174.58  345.5 171.5  C 345.5 168.42  347.92 166  351 166  Z " stroke-width="1" stroke="#797979" fill="none" />
  <path d="M 351 174.5  C 349.32 174.5  348 173.18  348 171.5  C 348 169.82  349.32 168.5  351 168.5  C 352.68 168.5  354 169.82  354 171.5  C 354 173.18  352.68 174.5  351 174.5  " fill-rule="nonzero" fill="#797979" stroke="none" />
</svg>