<?xml version="1.0" encoding="utf-8"?>
<svg version="1.1" xmlns:xlink="http://www.w3.org/1999/xlink" width="12px" height="12px" viewBox="391 165.5  12 12" xmlns="http://www.w3.org/2000/svg">
  <path d="M 397 165.5  C 400.36 165.5  403 168.14  403 171.5  C 403 174.86  400.36 177.5  397 177.5  C 393.64 177.5  391 174.86  391 171.5  C 391 168.14  393.64 165.5  397 165.5  Z " fill-rule="nonzero" fill="#f0f0f0" stroke="none" />
  <path d="M 397 166  C 400.08 166  402.5 168.42  402.5 171.5  C 402.5 174.58  400.08 177  397 177  C 393.92 177  391.5 174.58  391.5 171.5  C 391.5 168.42  393.92 166  397 166  Z " stroke-width="1" stroke="#797979" fill="none" />
  <path d="M 397 174.5  C 395.32 174.5  394 173.18  394 171.5  C 394 169.82  395.32 168.5  397 168.5  C 398.68 168.5  400 169.82  400 171.5  C 400 173.18  398.68 174.5  397 174.5  " fill-rule="nonzero" fill="#797979" stroke="none" />
</svg>