<?xml version="1.0" encoding="utf-8"?>
<svg version="1.1" xmlns:xlink="http://www.w3.org/1999/xlink" width="12px" height="12px" viewBox="451 221.5  12 12" xmlns="http://www.w3.org/2000/svg">
  <path d="M 457 221.5  C 460.36 221.5  463 224.14  463 227.5  C 463 230.86  460.36 233.5  457 233.5  C 453.64 233.5  451 230.86  451 227.5  C 451 224.14  453.64 221.5  457 221.5  Z " fill-rule="nonzero" fill="#ffffff" stroke="none" />
  <path d="M 457 222  C 460.08 222  462.5 224.42  462.5 227.5  C 462.5 230.58  460.08 233  457 233  C 453.92 233  451.5 230.58  451.5 227.5  C 451.5 224.42  453.92 222  457 222  Z " stroke-width="1" stroke="#797979" fill="none" />
  <path d="M 457 230.5  C 455.32 230.5  454 229.18  454 227.5  C 454 225.82  455.32 224.5  457 224.5  C 458.68 224.5  460 225.82  460 227.5  C 460 229.18  458.68 230.5  457 230.5  " fill-rule="nonzero" fill="#797979" stroke="none" />
</svg>