<?xml version="1.0" encoding="utf-8"?>
<svg version="1.1" xmlns:xlink="http://www.w3.org/1999/xlink" width="12px" height="12px" viewBox="389 241.5  12 12" xmlns="http://www.w3.org/2000/svg">
  <path d="M 395 241.5  C 398.36 241.5  401 244.14  401 247.5  C 401 250.86  398.36 253.5  395 253.5  C 391.64 253.5  389 250.86  389 247.5  C 389 244.14  391.64 241.5  395 241.5  Z " fill-rule="nonzero" fill="#ffffff" stroke="none" />
  <path d="M 395 242  C 398.08 242  400.5 244.42  400.5 247.5  C 400.5 250.58  398.08 253  395 253  C 391.92 253  389.5 250.58  389.5 247.5  C 389.5 244.42  391.92 242  395 242  Z " stroke-width="1" stroke="#797979" fill="none" />
  <path d="M 395 250.5  C 393.32 250.5  392 249.18  392 247.5  C 392 245.82  393.32 244.5  395 244.5  C 396.68 244.5  398 245.82  398 247.5  C 398 249.18  396.68 250.5  395 250.5  " fill-rule="nonzero" fill="#797979" stroke="none" />
</svg>