<?xml version="1.0" encoding="utf-8"?>
<svg version="1.1" xmlns:xlink="http://www.w3.org/1999/xlink" width="12px" height="12px" viewBox="451 241.5  12 12" xmlns="http://www.w3.org/2000/svg">
  <path d="M 457 241.5  C 460.36 241.5  463 244.14  463 247.5  C 463 250.86  460.36 253.5  457 253.5  C 453.64 253.5  451 250.86  451 247.5  C 451 244.14  453.64 241.5  457 241.5  Z " fill-rule="nonzero" fill="#f0f0f0" stroke="none" />
  <path d="M 457 242  C 460.08 242  462.5 244.42  462.5 247.5  C 462.5 250.58  460.08 253  457 253  C 453.92 253  451.5 250.58  451.5 247.5  C 451.5 244.42  453.92 242  457 242  Z " stroke-width="1" stroke="#797979" fill="none" />
  <path d="M 457 250.5  C 455.32 250.5  454 249.18  454 247.5  C 454 245.82  455.32 244.5  457 244.5  C 458.68 244.5  460 245.82  460 247.5  C 460 249.18  458.68 250.5  457 250.5  " fill-rule="nonzero" fill="#797979" stroke="none" />
</svg>